<svg width="354" height="114" viewBox="0 0 354 114" fill="none" xmlns="http://www.w3.org/2000/svg">
<g clip-path="url(#clip0_402_568)">
<path d="M71.073 58.2354C76.2007 58.2354 79.8444 59.1653 82.0043 61.0116V61.0249C84.1641 62.8714 85.2506 65.475 85.2506 68.8226C85.2506 71.1202 85.0123 73.0601 84.5087 74.6272C84.005 76.1948 82.9852 77.5899 81.4484 78.7853C79.9111 79.9808 77.6318 80.9368 74.6243 81.6542H66.9395V58.2354H71.073Z" fill="white"/>
<path d="M66.9395 32.399C71.1661 32.4256 74.4653 32.797 76.837 33.5276C79.2087 34.2582 80.8649 35.3078 81.7924 36.6893C82.7198 38.0708 83.1838 39.8642 83.1838 42.0559C83.1838 44.0484 82.8921 45.8284 82.3092 47.3825C81.7263 48.9367 80.5468 50.2385 78.7579 51.2879C76.9697 52.3373 74.4124 52.8554 71.073 52.8554H66.9395V32.399Z" fill="white"/>
<path d="M122.417 32.399C126.233 32.4256 129.333 32.8106 131.718 33.5676C134.103 34.3248 135.852 35.4671 136.978 36.9946V37.008C138.104 38.5356 138.661 40.515 138.661 42.9459C138.661 46.8779 137.389 49.6675 134.858 51.3146C132.315 52.9617 129.108 53.7854 125.239 53.7854H122.417V32.399Z" fill="white"/>
<path fill-rule="evenodd" clip-rule="evenodd" d="M354 114H0V0H354V114ZM195.04 29.2239L205.361 38.071L228.138 86.9675H231.61L254.731 37.0748L260.654 32.0669L266.404 36.9946V75.929L257.341 83.7138V85.8918H309.374V66.2718H307.294L292.613 80.5249H279.574V58.3417H286.186L294.295 67.8394H296.468V43.5439H294.295L286.267 52.975H279.574V32.3991H292.613L307.294 44.7393H309.374L309.387 44.7526V27.0457H239.11L239.269 29.2641L248.596 37.2739L234.259 68.7691L218.704 35.7331L226.31 29.2239V27.0457H195.04V29.2239ZM44.6389 29.2239L53.7683 37.0348V75.929L44.745 83.7138V85.8918H76.0949C81.0107 85.8918 85.2901 85.1479 88.9339 83.6338V83.6602C92.5776 82.1594 95.387 79.994 97.3481 77.1641C99.3086 74.3349 100.29 71.027 100.29 67.2147C100.29 64.6777 99.6262 62.5262 98.2881 60.733C96.9501 58.9397 95.2675 57.5316 93.2403 56.4955C91.2132 55.4594 89.0797 54.7283 86.8407 54.2899C90.4045 53.3203 93.068 51.6334 94.8299 49.2159C96.5923 46.7983 97.4669 44.1148 97.4669 41.1526C97.4669 36.4768 95.2675 32.9568 90.8416 30.5923C86.4162 28.2278 80.0298 27.0457 71.669 27.0457H44.6389V29.2239ZM100.183 29.2106L109.246 36.9946V75.929L100.183 83.7138V85.8918H131.453V83.7138L122.43 75.929V59.1388H125.795C127.094 59.1388 128.048 59.1252 128.657 59.0987L142.344 85.8785H176.371L176.212 83.6602L167.043 75.8094L180.186 45.6159L195.013 77.0445L187.249 83.7138V85.8918H218.519L218.532 85.8785V83.7006L208.25 74.8936L186.652 27.0324H165.016V29.2106L177.047 39.5323L160.696 75.8497L156.323 79.5688L151.938 75.7835L144.174 60.4136L138.555 57.9561C148.135 55.7776 152.932 50.7434 152.932 42.853C152.932 38.0842 151.408 34.5239 148.347 32.1859C145.286 29.8481 141.96 28.4002 138.369 27.8556C134.779 27.3109 131.029 27.0324 127.134 27.0324H100.183V29.2106Z" fill="white"/>
</g>
<defs>
<clipPath id="clip0_402_568">
<rect width="354" height="114" fill="white"/>
</clipPath>
</defs>
</svg>
